<?xml version="1.0" standalone="no"?>
<!DOCTYPE svg PUBLIC "-//W3C//DTD SVG 20010904//EN"
 "http://www.w3.org/TR/2001/REC-SVG-20010904/DTD/svg10.dtd">
<svg version="1.0" xmlns="http://www.w3.org/2000/svg"
 width="2008.000000pt" height="2008.000000pt" viewBox="0 0 2008.000000 2008.000000"
 preserveAspectRatio="xMidYMid meet">
<metadata>
Created by potrace 1.11, written by Peter Selinger 2001-2013
</metadata>
<g transform="translate(0.000000,2008.000000) scale(0.100000,-0.100000)"
fill="#000000" stroke="none">
<path d="M10078 20026 c-1 -2 -133 -6 -293 -10 -159 -3 -317 -8 -350 -11 -199
-14 -283 -21 -380 -31 -33 -3 -76 -7 -95 -9 -70 -7 -306 -37 -395 -50 -156
-24 -244 -38 -340 -56 -60 -12 -121 -23 -135 -26 -13 -2 -56 -11 -95 -19 -38
-9 -81 -18 -95 -20 -44 -8 -283 -65 -335 -79 -27 -8 -95 -26 -150 -40 -438
-115 -948 -295 -1420 -502 -142 -62 -593 -281 -645 -313 -8 -5 -78 -44 -155
-86 -226 -124 -423 -245 -685 -421 -135 -90 -259 -174 -275 -186 -154 -112
-441 -331 -455 -347 -3 -3 -27 -24 -55 -45 -27 -22 -52 -42 -55 -45 -3 -3 -32
-28 -65 -55 -33 -28 -62 -52 -65 -55 -3 -3 -41 -36 -85 -75 -306 -267 -693
-655 -940 -941 -27 -32 -66 -76 -85 -99 -20 -22 -56 -65 -80 -95 -25 -30 -47
-57 -50 -60 -28 -25 -360 -461 -420 -552 -14 -21 -28 -38 -32 -38 -5 0 -8 -4
-8 -10 0 -5 -14 -29 -30 -52 -119 -169 -430 -664 -430 -684 0 -2 -12 -23 -27
-47 -58 -91 -373 -700 -373 -720 0 -3 -17 -43 -39 -89 -35 -75 -53 -116 -96
-213 -129 -298 -308 -804 -414 -1175 -42 -149 -105 -387 -116 -441 -2 -9 -19
-90 -39 -180 -38 -172 -66 -319 -91 -479 -9 -52 -18 -107 -20 -121 -3 -15 -7
-47 -10 -70 -3 -24 -7 -55 -10 -69 -3 -23 -10 -79 -20 -160 -2 -19 -6 -51 -9
-70 -3 -19 -8 -66 -11 -105 -4 -38 -8 -83 -10 -100 -2 -16 -7 -75 -11 -130 -3
-55 -8 -118 -9 -140 -23 -320 -23 -1198 0 -1390 2 -16 7 -77 10 -133 4 -57 8
-112 10 -121 2 -10 6 -55 10 -102 3 -46 8 -91 10 -99 2 -8 6 -37 9 -65 12
-102 16 -141 21 -170 3 -16 7 -48 10 -70 8 -58 50 -313 60 -365 3 -14 7 -36
10 -50 17 -89 50 -247 65 -315 11 -45 21 -92 23 -105 10 -50 97 -379 137 -515
336 -1151 885 -2250 1592 -3188 86 -114 321 -411 342 -433 6 -6 31 -35 56 -64
25 -29 50 -58 55 -64 6 -6 44 -49 85 -96 246 -278 683 -708 924 -911 16 -13
34 -29 41 -36 7 -6 57 -48 111 -93 55 -45 108 -89 119 -98 11 -10 81 -65 155
-122 357 -279 776 -559 1154 -772 89 -50 183 -103 209 -119 27 -16 55 -29 62
-29 8 0 16 -4 19 -9 14 -22 644 -319 871 -411 11 -4 36 -15 56 -24 176 -77
686 -251 984 -337 159 -45 576 -149 652 -163 15 -2 73 -14 128 -25 55 -11 112
-22 128 -25 15 -3 53 -10 85 -15 60 -11 75 -13 187 -31 77 -13 97 -15 170 -25
28 -3 75 -10 105 -15 30 -5 87 -12 125 -15 39 -4 81 -8 95 -10 14 -2 54 -7 90
-10 36 -3 85 -8 110 -10 25 -2 83 -7 130 -10 47 -3 108 -8 135 -10 208 -16
705 -21 981 -10 225 9 484 26 604 40 19 2 62 7 95 10 33 3 71 7 85 9 14 2 54
7 90 11 36 4 72 8 80 10 8 1 40 6 70 10 63 8 72 9 200 30 112 18 123 20 260
45 115 22 129 25 230 45 3 1 19 4 35 8 17 4 39 9 50 11 89 18 475 117 629 162
262 77 712 229 811 274 11 5 54 23 95 39 333 129 774 341 1159 555 342 190
739 447 1070 694 171 127 408 313 450 353 9 8 43 37 76 65 33 27 65 54 71 59
6 6 46 42 89 80 44 39 104 92 135 120 69 63 485 478 565 565 33 36 93 103 134
150 41 47 77 87 80 90 23 19 343 416 416 515 16 22 32 42 35 45 11 9 226 313
307 435 133 200 393 624 393 641 0 3 8 18 18 32 51 74 298 563 397 787 7 17
31 71 53 120 99 225 236 586 328 865 103 311 243 831 280 1040 3 14 15 79 28
145 14 66 29 149 35 185 6 36 13 74 15 85 2 11 7 42 10 68 4 27 9 59 12 70 2
12 11 76 19 142 9 66 18 131 20 145 4 28 12 107 20 195 3 33 8 78 10 100 40
395 51 1234 20 1640 -2 28 -7 88 -10 135 -3 47 -8 101 -10 120 -2 19 -6 64
-10 100 -8 82 -13 122 -20 185 -13 107 -16 131 -20 145 -2 8 -7 42 -10 75 -4
32 -8 62 -10 65 -1 3 -6 30 -9 61 -4 31 -9 67 -11 80 -3 13 -14 76 -25 139
-12 63 -23 122 -26 131 -2 10 -7 30 -9 45 -2 16 -7 40 -10 54 -3 14 -7 36 -10
50 -2 14 -21 95 -41 180 -19 85 -37 163 -39 173 -8 39 -89 329 -125 452 -128
428 -309 908 -495 1310 -37 81 -239 487 -255 515 -5 8 -41 74 -81 145 -39 72
-117 206 -172 298 -56 93 -106 176 -112 186 -142 243 -587 850 -807 1102 -13
15 -43 51 -68 80 -25 30 -67 78 -95 109 -27 30 -63 70 -80 89 -225 253 -576
595 -860 842 -267 231 -603 495 -819 641 -10 7 -28 20 -40 29 -55 41 -369 248
-451 296 -11 7 -83 50 -160 96 -245 147 -363 211 -630 345 -82 42 -151 79
-153 84 -4 8 -100 24 -117 19 -5 -1 -6 1 -2 5 11 12 -107 66 -538 244 -207 86
-601 220 -910 309 -91 26 -343 91 -375 97 -14 3 -32 7 -40 10 -8 3 -67 17
-130 30 -63 14 -124 27 -135 30 -11 2 -36 7 -55 10 -19 4 -44 8 -55 11 -66 13
-175 33 -205 38 -19 3 -60 10 -90 15 -87 15 -139 23 -235 35 -16 2 -64 9 -105
14 -41 6 -97 13 -125 16 -27 3 -70 7 -95 10 -136 15 -214 22 -345 31 -49 3
-110 8 -135 9 -25 2 -151 6 -280 10 -129 3 -240 8 -247 10 -6 2 -13 2 -15 1z"/>
</g>
</svg>
